HIERARCHY
ROOT simHips
{
  OFFSET 0.88408 93.1471 -0.979595
  CHANNELS 6 Xposition Yposition Zposition Zrotation Xrotation Yrotation
  JOINT simSpine
  {
    OFFSET -0.000355721 21.3001 -0.016921
    CHANNELS 3 Zrotation Xrotation Yrotation
    JOINT simLeftArm
    {
      OFFSET 13.5181 21.3012 0
      CHANNELS 3 Zrotation Xrotation Yrotation
      JOINT simLeftForeArm
      {
        OFFSET 24.5783 0 0
        CHANNELS 3 Zrotation Xrotation Yrotation
        JOINT simLeftHand
        {
          OFFSET 24.5783 0 0
          CHANNELS 3 Zrotation Xrotation Yrotation
          End Site
          {
            OFFSET 7.32568 1.52588e-05 0.0169305
          }
        }
      }
    }
    JOINT simHead
    {
      OFFSET 0 27.4458 -0.00489235
      CHANNELS 3 Zrotation Xrotation Yrotation
      End Site
      {
        OFFSET 0 0 0
      }
    }
    JOINT simRightArm
    {
      OFFSET -13.5174 21.3012 0
      CHANNELS 3 Zrotation Xrotation Yrotation
      JOINT simRightForeArm
      {
        OFFSET -24.5783 0 0
        CHANNELS 3 Zrotation Xrotation Yrotation
        JOINT simRightHand
        {
          OFFSET -24.5783 0 0
          CHANNELS 3 Zrotation Xrotation Yrotation
          End Site
          {
            OFFSET -7.32568 1.52588e-05 0.0169305
          }
        }
      }
    }
  }
  JOINT simRightUpLeg
  {
    OFFSET -8.44614 -9.41038 0.835684
    CHANNELS 3 Zrotation Xrotation Yrotation
    JOINT simRightLeg
    {
      OFFSET 0 -40.9639 0
      CHANNELS 3 Zrotation Xrotation Yrotation
      JOINT simRightFoot
      {
        OFFSET 0 -40.9639 0
        CHANNELS 3 Zrotation Xrotation Yrotation
        End Site
        {
          OFFSET 0.50614 -9.67405 14.6709
        }
      }
    }
  }
  JOINT simLeftUpLeg
  {
    OFFSET 8.44614 -9.41038 0.835684
    CHANNELS 3 Zrotation Xrotation Yrotation
    JOINT simLeftLeg
    {
      OFFSET 0 -40.9639 0
      CHANNELS 3 Zrotation Xrotation Yrotation
      JOINT simLeftFoot
      {
        OFFSET 0 -40.9639 0
        CHANNELS 3 Zrotation Xrotation Yrotation
        End Site
        {
          OFFSET -0.50614 -9.67405 14.6709
        }
      }
    }
  }
}
MOTION
Frames:	29
Frame Time:	0.0333333
-6.59729 130.851 17.4475 170.848 6.95639 -168.999 0.887993 12.7306 0.718943 -41.1194 41.5332 -1.28296 -15.6973 0.0839344 -72.4946 -7.47766 -17.4562 -17.8779 -4.27036 -9.82151 -11.8318 48.4725 32.2856 0.518533 8.35865 5.09007 70.6394 9.99674 -23.0092 -4.40284 57.4236 -85.2495 65.1894 -169.458 59.2476 167.561 14.7467 2.56983 5.09162 68.8489 -77.5744 70.0785 -175.926 49.259 163.862 -3.68518 -17.3376 0.0876199 
-6.29384 133.313 19.9647 166.373 26.454 -168.372 1.36964 13.2065 1.37623 -40.6219 42.6953 5.00799 -18.0571 -0.3019 -81.4041 -10.4039 -19.6086 -21.1428 -2.51964 -0.214955 -8.53183 41.1248 33.9466 2.05942 8.31374 3.04221 73.3567 10.895 -24.4974 -2.05797 -138.46 -87.405 -132.717 -168.665 60.9572 172.578 12.5379 5.50494 3.82691 124.165 -73.1601 127.959 -177.267 43.1965 169.134 -4.75495 -12.4268 0.997321 
-5.45982 132.251 19.7889 157.743 44.9876 -162.679 0.674989 12.828 1.64498 -42.9875 41.5964 11.092 -18.0511 -0.0946894 -88.7171 -10.7135 -19.3175 -23.9521 -1.45543 7.99691 -5.99674 38.0543 34.4113 3.20833 5.98429 2.0827 73.2005 8.95173 -20.7578 0.857896 -121.25 -85.4511 -115.791 -166.087 68.1154 166.67 12.5237 5.4364 5.0119 141.484 -62.7727 145.892 -174.533 47.257 169.518 -7.60246 -2.06635 3.22387 
-5.70778 126.243 17.8733 142.587 60.9474 -150.196 -0.0973196 12.01 1.8708 -42.2906 38.8965 11.6424 -16.0318 -0.272827 -93.0293 -5.13501 -18.2598 -22.6911 -1.71471 13.129 -4.60281 40.2282 33.6737 3.98415 2.25633 2.19659 71.0242 3.71024 -14.4023 3.15357 -72.2413 -83.0389 -70.4674 -160.686 81.2581 154.736 11.789 6.00961 6.49867 146.358 -58.1232 144.745 -168.642 58.2293 162.023 -5.44553 3.84579 3.72829 
-5.91614 116.67 16.1157 112.263 72.5192 -122.573 -0.480565 11.0314 2.37911 -36.5934 35.1831 5.73731 -12.8191 -1.1628 -94.1624 4.4916 -15.8178 -17.0588 -2.71239 12.6664 -3.91575 43.2339 32.3663 6.52643 -0.488913 3.00043 66.7499 -0.455792 -9.68287 5.406 -53.2523 -78.1788 -56.8446 9.49879 81.9264 -14.4016 12.9587 1.55904 8.46906 151.3 -58.3904 140.354 -150.769 71.9741 141.488 -3.40215 2.1668 2.0344 
-6.04161 105.41 14.7772 63.9812 74.0291 -76.6639 -0.784898 10.0622 2.31185 -31.1285 29.5687 -2.83017 -10.508 -2.57636 -92.3974 12.7809 -10.7566 -10.1963 -3.0994 9.23693 -3.18027 45.4634 29.7857 10.1688 -0.727948 3.27945 58.7784 -1.96522 -7.78929 7.48506 -24.5414 -71.1212 -33.8017 8.58993 55.0085 -17.4176 12.8781 3.36822 8.18889 158.602 -59.8718 145.971 -39.6735 79.0597 27.5383 4.38648 5.5729 1.24837 
-5.99208 94.6164 12.3376 31.7276 67.0489 -45.0288 -0.854485 9.46595 1.44933 -31.2907 23.2363 -11.6981 -10.4316 -4.04887 -86.1661 16.5825 -4.85327 -5.68083 -1.76907 10.9661 -2.15262 47.3192 26.1318 13.9228 1.30675 2.37812 48.1622 -4.05214 -8.37971 9.03749 -0.486849 -59.39 -19.1463 1.90136 29.9367 -17.4913 7.53633 9.52618 6.90692 151.279 -70.572 133.367 -4.69187 53.5024 -17.876 2.17384 7.54567 1.67367 
-5.19876 85.2761 9.10295 16.2329 55.0553 -30.3976 -0.835469 9.60988 0.985262 -35.1902 19.4849 -20.2909 -8.01083 -6.09508 -74.8625 17.3553 -0.405566 -4.1013 0.641335 21.2409 -1.44777 46.3823 23.5152 17.2173 4.22425 0.855204 40.9548 -8.34918 -11.6525 8.65986 -10.0688 -51.403 -39.4702 5.79481 43.6801 -19.0521 19.7979 -28.1933 11.3578 159.084 -75.1937 138.232 1.78718 63.2744 -20.2217 -2.9193 -2.61817 -1.80742 
-4.31511 78.0957 5.53139 11.0773 45.6918 -25.7623 -1.0416 10.3801 0.803342 -38.3137 18.481 -25.306 -4.17515 -8.82424 -66.3135 16.7348 1.73916 -3.12376 2.06854 32.9773 -1.72903 40.6407 22.875 19.1993 7.43265 -0.318901 41.982 -12.5602 -17.2045 5.57331 -25.2449 -50.1514 -52.3595 12.8124 70.9719 -22.6914 23.2377 -41.5744 14.8113 161.235 -74.6291 139.52 -10.8424 75.4474 -7.15389 -5.10513 -13.7046 -4.39353 
-3.62243 74.0735 2.52232 10.0823 42.012 -23.7648 -1.12036 11.1974 0.733855 -39.7358 17.3473 -25.166 -4.46324 -12.3926 -64.3255 14.3778 1.13137 -1.00172 1.27687 37.6152 -2.8658 31.4841 23.1342 21.0836 10.7412 -0.66926 48.3621 -14.3495 -23.1563 2.193 -35.4972 -48.7423 -54.7553 61.5801 77.6948 -65.548 20.2481 -45.9486 11.9166 161.896 -72.7563 141.789 -23.4322 79.5429 2.29924 -4.38122 -19.2376 -4.58356 
-3.93904 73.0318 -0.0475082 10.256 39.9753 -21.9585 -1.07248 11.4958 0.501146 -40.0515 16.5534 -22.4453 -6.43258 -14.3043 -64.8467 10.518 -1.46211 0.409926 -0.668568 34.3244 -4.64315 23.4156 21.7604 23.8272 13.08 -0.433636 52.8228 -13.4362 -26.8296 1.34955 -40.2719 -47.2497 -51.3429 85.099 70.6381 -83.6315 17.1887 -48.1983 8.23307 158.291 -71.4617 140.176 -32.2314 78.2001 7.85217 -3.46542 -15.9086 -5.00704 
-4.50156 74.4619 -2.43279 10.7078 39.6485 -19.51 -1.01634 11.022 0.120928 -41.2406 16.275 -19.9065 -7.50887 -13.8473 -62.7571 6.56383 -3.58841 -0.83769 -2.5221 27.8221 -6.419 20.188 18.107 26.1369 13.6761 0.0246802 52.4384 -11.6284 -26.7245 2.38828 -41.3245 -46.0909 -50.2155 80.7032 65.5428 -75.6383 12.3663 -51.1932 2.91883 155.966 -72.5422 139.555 -26.7555 72.3824 0.0423907 -4.21495 -10.0262 -4.79485 
-5.08835 76.1757 -4.67563 12.6797 40.2086 -19.7744 -1.15425 9.98948 0.0795721 -45.0251 14.2993 -17.166 -7.89493 -13.5821 -57.5719 3.48143 -3.71789 -3.4351 -4.07741 21.7735 -6.73703 20.6664 14.7153 28.0038 12.2315 1.21332 50.6057 -10.4505 -23.8487 3.80056 -42.4994 -47.0048 -52.5566 73.5183 64.0471 -69.4226 10.6969 -51.8285 2.57222 151.586 -73.7086 137.424 -19.3434 65.974 -8.2541 -5.92286 -5.51362 -4.12594 
-5.02415 79.0238 -6.67941 13.1305 40.0059 -22.5971 -1.37194 8.94781 0.506979 -50.1595 10.2489 -13.1256 -7.78522 -15.0901 -51.409 1.4961 -2.24817 -5.50691 -5.07755 16.7542 -4.73049 22.5863 13.7757 29.2372 9.83523 2.97936 51.5581 -9.68694 -20.3507 5.4999 -37.8619 -50.7146 -48.2201 61.9474 62.4169 -67.4042 16.0619 -46.6389 9.69911 134.904 -75.4657 121.591 -11.9002 58.4234 -15.087 -8.54085 -1.81638 -3.40706 
-4.77363 81.6794 -8.44901 13.0235 39.0096 -25.9355 -1.56706 8.30894 1.00758 -54.6998 6.0642 -7.40412 -6.83466 -16.9585 -46.1936 0.601239 0.0981387 -6.81852 -5.29239 12.191 -1.50226 24.9905 15.0336 28.8708 7.76508 4.30443 55.623 -9.1922 -18.0894 7.14352 -30.7115 -53.6433 -40.9984 51.3376 60.5488 -61.3527 14.9576 -42.1376 8.69471 111.117 -75.4346 97.6624 -8.36251 50.8339 -17.561 -11.0186 1.07708 -2.75942 
-4.47692 83.7617 -8.67396 12.7526 37.2964 -28.047 -1.66934 8.16246 1.22005 -57.912 4.09123 0.0436779 -5.04997 -16.7073 -42.475 0.595359 2.85652 -8.38639 -4.8907 7.90653 1.07266 28.3585 16.8782 27.22 6.40784 4.75406 59.1172 -8.94541 -18.1418 8.25965 -25.9872 -51.6878 -37.9955 43.0634 58.295 -52.7412 12.7758 -39.1986 7.66859 89.8312 -75.2502 74.3027 -7.13495 45.8448 -15.8895 -12.7993 1.53697 -2.10953 
-4.13878 85.3712 -8.49867 12.0861 35.1812 -29.3744 -1.6834 8.17498 1.29849 -59.9353 4.03297 6.66856 -4.46342 -14.5801 -38.9534 -0.0273763 3.38557 -10.8294 -4.33819 3.79137 2.69935 32.9458 18.8043 25.3658 5.63132 4.02049 59.6367 -7.48314 -18.183 8.63121 -22.6379 -48.4423 -35.5859 37.8632 55.5955 -46.2025 9.91398 -37.0606 6.05334 72.0939 -73.795 53.528 -7.57779 42.5244 -12.3405 -13.7031 1.47217 -1.64868 
-3.78325 86.3625 -7.6225 12.1618 32.8298 -31.2839 -1.8049 8.01704 1.43369 -61.5346 4.54375 11.174 -4.22687 -11.2116 -34.8208 0.61467 2.50103 -12.9455 -4.67615 -0.161 4.8841 36.2262 20.8519 21.744 5.05285 4.85941 61.5144 -6.83192 -16.9413 7.81593 -21.5501 -45.1688 -34.4726 34.7548 53.9716 -41.05 7.24262 -35.5415 4.52789 59.6145 -72.3208 38.4991 -7.78402 42.227 -8.21058 -14.0895 -0.0560613 -1.62096 
-3.4946 87.1979 -7.22159 11.2058 28.5662 -32.4227 -1.88114 7.81211 1.71386 -62.9382 4.52844 14.0253 -3.87478 -7.88871 -32.0054 1.04718 0.742718 -13.7577 -5.47903 -0.53171 7.21788 39.9142 22.7306 17.1205 3.66908 8.09107 62.129 -6.4045 -12.7329 6.43336 -20.8624 -40.33 -33.3459 32.1929 53.3531 -36.4552 5.53656 -34.7903 3.57819 46.999 -68.7286 24.9638 -8.35068 42.2808 -5.35994 -14.0052 -1.29976 -1.82325 
-3.31162 87.8789 -6.61483 9.35133 23.4777 -33.3976 -1.82326 7.66579 2.20787 -64.4757 2.68148 17.3694 -4.16635 -4.84729 -33.7742 1.76976 -2.32836 -12.3906 -5.72373 1.34511 10.1662 44.6709 23.7613 10.2135 1.14541 12.4093 64.1601 -6.24239 -6.54375 3.26643 -19.8891 -34.4021 -31.126 29.9201 52.7395 -32.3226 5.03042 -34.5461 3.06362 39.3569 -63.1907 18.6654 -9.05752 43.1562 -4.98986 -12.8661 -3.1201 -2.22305 
-3.03336 88.3646 -6.25165 7.66914 18.6565 -34.3826 -1.79238 7.47935 2.59389 -65.3274 0.372853 18.6244 -4.76706 -1.85042 -36.3964 3.41059 -4.45915 -11.5195 -6.32792 1.64353 14.5798 48.5318 23.7977 3.37544 -1.34835 16.3675 66.4181 -6.25464 -0.40406 1.69259 -19.5973 -29.2517 -28.4631 28.6056 52.167 -30.062 4.82206 -34.6467 2.63642 34.925 -57.5968 17.0205 -9.24481 43.7754 -6.26511 -11.4238 -4.44795 -2.57248 
-2.60226 89.1038 -6.08568 5.60468 13.652 -35.0642 -1.78294 7.38172 2.86448 -65.2783 -1.46733 21.9413 -5.31538 1.82077 -44.0394 4.87916 -4.03123 -7.99461 -7.21926 2.13345 20.0656 52.0948 23.3587 -3.42639 -4.21338 19.6842 67.211 -3.97873 5.1557 2.62609 -19.0044 -23.8585 -23.1695 28.6668 49.9758 -31.4458 5.51824 -34.1438 2.69749 29.4843 -51.3174 13.5345 -8.16151 42.8488 -7.27231 -10.8736 -5.52822 -2.75315 
-2.23033 90.0159 -5.64632 3.00677 8.37028 -35.8185 -1.73017 7.63572 3.02415 -65.5596 -4.56853 26.275 -4.55203 3.66925 -51.828 3.68277 -1.57328 -5.48479 -8.15359 3.99464 25.3967 54.9268 19.9662 -11.1462 -6.69298 24.1066 68.0483 -1.62205 9.92522 3.90406 -18.5604 -16.8938 -19.9274 26.5889 47.284 -29.4477 6.35831 -33.0786 2.84022 25.4131 -43.9696 10.1285 -8.55147 41.4214 -6.77027 -9.46592 -6.36504 -2.73467 
-1.80382 91.027 -5.37628 0.369698 3.49623 -36.7329 -1.71712 8.05222 3.13888 -65.4652 -6.37491 28.9639 -4.54103 4.18804 -57.0208 3.30563 -0.528331 -5.01095 -8.14214 6.32998 29.8588 56.0264 16.5011 -17.9651 -7.88232 26.8804 67.6619 -0.641542 11.8572 4.86835 -17.9834 -10.2617 -17.3772 23.4039 44.4556 -26.5165 7.45397 -31.2361 3.01261 21.8376 -36.5756 7.11877 -7.6133 39.0635 -6.7199 -9.17889 -6.24911 -2.55604 
-1.30758 91.9672 -5.08137 -1.99106 -0.540961 -37.7821 -1.7351 8.36143 3.37 -65.8321 -8.61203 29.1698 -2.99131 4.2226 -58.9962 6.38305 3.22608 -3.24111 -6.88273 8.22286 32.7972 55.4042 13.8864 -23.3159 -6.36058 27.9849 65.4238 -2.21448 9.42452 4.24832 -17.7029 -4.42521 -16.3207 19.8726 41.7954 -22.6716 8.02761 -29.0974 2.93362 19.0262 -29.8891 5.50733 -5.86204 36.4133 -7.57884 -9.319 -5.74028 -2.13573 
-0.831668 92.6638 -4.47258 -3.68549 -3.16914 -38.9003 -1.69515 8.40058 3.69236 -66.1175 -10.9322 28.9688 -0.529299 4.60465 -60.6926 11.1534 6.93109 -3.52888 -4.7005 8.46795 34.6363 53.752 11.8175 -26.8856 -2.38414 29.0981 61.0006 -5.0238 6.33894 7.24965 -17.3018 -0.492172 -16.5529 15.5266 39.9799 -18.2336 9.05917 -27.1315 2.88183 17.5093 -25.0474 6.0084 -4.54495 34.6492 -9.02328 -8.95224 -5.50869 -1.82721 
-0.395104 93.004 -3.80153 -4.53426 -4.70852 -40.01 -1.57663 8.0556 4.01211 -66.4585 -12.5159 28.2385 1.81904 4.76722 -61.4911 14.1526 9.84145 -4.08587 -2.67109 7.97101 36.4073 54.1269 11.8294 -28.9882 0.358669 27.519 55.831 -6.08088 3.53888 12.1211 -16.6024 1.28049 -15.4999 11.5296 38.9004 -15.9979 10.9056 -26.2754 2.96287 16.6539 -22.2614 8.60149 -2.90751 34.2637 -11.9256 -8.38155 -5.81954 -1.54873 
-0.0654147 93.122 -3.17476 -4.57502 -5.66194 -41.045 -1.45901 7.47913 4.28095 -67.1422 -14.2554 25.7224 3.56376 4.95988 -58.8354 15.3302 12.448 -3.78675 -2.47677 8.40427 38.6593 55.8618 12.0319 -30.1745 1.91009 23.8469 51.719 -4.24962 3.76625 15.6433 -16.2799 1.65564 -14.7917 7.58492 38.6936 -13.8232 13.0514 -25.8567 3.09225 15.7195 -20.8915 10.6762 -1.75046 34.4911 -13.832 -7.89076 -6.39512 -1.29871 
0.212868 93.1587 -2.47892 -4.17688 -5.76997 -41.9607 -1.33424 6.8496 4.46259 -68.3252 -15.8289 22.4676 4.68761 5.2003 -54.3979 16.3991 14.2993 -4.12495 -2.97612 8.90207 39.5228 58.1133 12.1934 -30.4827 2.24807 18.5599 49.9109 -0.161329 5.4451 16.0877 -16.4037 1.35023 -14.8474 4.92162 38.3682 -11.5387 14.5032 -25.5475 3.14238 14.8828 -20.8173 11.3926 -0.987952 35.1745 -14.1403 -7.669 -7.19927 -1.08032 
